<?xml version="1.0" encoding="UTF-8" ?>
<!DOCTYPE svg PUBLIC "-//W3C//DTD SVG 1.1//EN" "http://www.w3.org/Graphics/SVG/1.1/DTD/svg11.dtd">
<svg width="664pt" height="648pt" viewBox="0 0 664 648" version="1.1" xmlns="http://www.w3.org/2000/svg">
<g id="#ffffffff">
<path fill="#ffffff" stroke="#ffffff" stroke-width="0.09375" opacity="1.00" d=" M 520.81 261.48 C 528.76 262.48 536.71 263.44 544.64 264.56 C 538.05 269.06 531.34 273.40 524.68 277.79 C 523.33 272.37 522.05 266.93 520.81 261.48 Z" />
<path fill="#ffffff" stroke="#ffffff" stroke-width="0.09375" opacity="1.00" d=" M 323.89 444.40 C 329.40 435.16 336.70 427.10 344.94 420.22 C 345.28 421.50 345.63 422.78 345.99 424.07 C 338.56 430.61 332.81 438.72 326.81 446.52 C 325.83 445.81 324.86 445.10 323.89 444.40 Z" />
<path fill="#ffffff" stroke="#ffffff" stroke-width="0.09375" opacity="1.00" d=" M 287.63 477.16 C 299.06 470.52 309.58 462.19 318.15 452.09 C 319.18 452.71 320.21 453.33 321.24 453.95 C 317.06 459.48 313.14 465.25 308.26 470.21 C 304.65 473.89 300.16 476.50 295.64 478.88 C 292.95 478.38 290.28 477.79 287.63 477.16 Z" />
<path fill="#ffffff" stroke="#ffffff" stroke-width="0.09375" opacity="1.00" d=" M 507.06 458.71 C 510.98 459.84 514.90 461.00 518.82 462.17 C 516.99 464.56 515.14 466.95 513.29 469.32 C 511.20 465.79 509.12 462.25 507.06 458.71 Z" />
<path fill="#ffffff" stroke="#ffffff" stroke-width="0.09375" opacity="1.00" d=" M 273.29 484.08 C 274.11 483.73 274.94 483.39 275.76 483.06 C 277.80 483.73 279.86 484.38 281.92 485.00 C 280.12 485.72 278.31 486.46 276.51 487.20 C 275.43 486.15 274.36 485.12 273.29 484.08 Z" />
<path fill="#ffffff" stroke="#ffffff" stroke-width="0.09375" opacity="1.00" d=" M 183.37 504.69 C 186.97 502.71 190.58 500.75 194.19 498.80 C 192.92 502.69 191.63 506.57 190.32 510.45 C 187.99 508.54 185.67 506.62 183.37 504.69 Z" />
<path fill="#ffffff" stroke="#ffffff" stroke-width="0.09375" opacity="1.00" d=" M 454.11 507.75 C 457.51 510.00 460.90 512.29 464.28 514.58 C 461.81 516.30 459.34 518.02 456.87 519.73 C 455.93 515.74 455.02 511.74 454.11 507.75 Z" />
<path fill="#ffffff" stroke="#ffffff" stroke-width="0.09375" opacity="1.00" d=" M 390.07 535.03 C 392.75 534.16 395.85 532.81 398.47 534.59 C 401.59 536.74 403.10 541.24 401.70 544.80 C 400.63 547.58 397.22 547.69 394.80 548.50 C 393.17 544.03 391.55 539.55 390.07 535.03 Z" />
</g>
<g id="#2b2a28ff">
<path fill="#2b2a28" stroke="#2b2a28" stroke-width="0.09375" opacity="1.00" d=" M 284.60 21.76 C 298.05 20.43 311.63 20.26 325.10 21.50 C 362.55 25.02 399.79 31.95 435.58 43.64 C 475.82 56.81 514.55 76.34 546.29 104.69 C 568.29 124.44 589.10 146.09 604.23 171.67 C 615.08 189.88 622.64 210.02 626.61 230.84 C 633.89 268.98 629.54 308.17 622.23 345.96 C 613.59 389.63 600.82 432.56 583.29 473.51 C 571.02 501.57 556.66 529.18 536.54 552.47 C 522.25 568.82 505.22 582.87 486.02 593.08 C 452.23 611.25 413.61 616.86 375.94 620.65 C 336.88 625.41 297.41 619.25 259.53 609.73 C 221.00 599.70 183.50 585.12 149.18 564.83 C 105.51 539.22 68.52 501.69 45.58 456.40 C 28.53 423.01 19.39 385.54 19.69 348.02 C 19.82 303.14 25.75 257.95 40.46 215.42 C 51.85 182.39 68.78 151.14 91.27 124.35 C 110.60 101.14 134.11 81.62 159.73 65.72 C 197.56 42.45 240.27 26.32 284.60 21.76 M 282.48 33.75 C 236.78 38.95 193.75 59.38 158.01 87.89 C 112.70 124.06 77.86 172.67 56.06 226.26 C 39.82 266.37 30.90 309.62 31.48 352.95 C 31.91 384.23 40.63 415.16 55.46 442.63 C 73.40 476.00 99.56 504.41 129.14 527.83 C 159.55 551.84 193.70 570.98 229.68 585.27 C 263.68 598.66 299.54 608.06 336.11 610.24 C 353.75 611.35 371.46 609.90 388.83 606.79 C 409.64 603.11 430.05 597.05 449.36 588.46 C 478.67 575.50 505.33 556.63 527.32 533.34 C 549.85 509.61 567.50 481.51 580.59 451.59 C 596.05 416.21 605.36 378.39 610.50 340.19 C 613.38 319.62 614.64 298.77 613.29 278.01 C 611.02 240.06 599.84 202.50 579.71 170.16 C 560.38 138.76 533.26 112.60 502.56 92.39 C 453.38 60.11 395.92 41.95 337.82 34.67 C 319.49 32.19 300.87 31.53 282.48 33.75 Z" />
<path fill="#2b2a28" stroke="#2b2a28" stroke-width="0.09375" opacity="1.00" d=" M 329.43 52.55 C 334.11 52.15 338.87 52.36 343.56 52.76 C 347.79 53.20 349.93 58.82 347.23 62.05 C 344.58 65.54 339.74 63.98 336.02 64.19 C 332.71 63.93 328.46 64.94 326.18 61.83 C 323.52 58.73 325.40 53.30 329.43 52.55 Z" />
<path fill="#2b2a28" stroke="#2b2a28" stroke-width="0.09375" opacity="1.00" d=" M 294.57 54.71 C 297.62 54.44 300.73 53.56 303.78 54.21 C 307.55 55.33 309.04 60.53 306.44 63.48 C 304.11 66.29 300.06 65.65 296.85 66.32 C 293.59 66.47 289.90 68.09 286.91 66.13 C 283.91 64.22 283.49 59.52 286.10 57.10 C 288.36 54.99 291.72 55.28 294.57 54.71 Z" />
<path fill="#2b2a28" stroke="#2b2a28" stroke-width="0.09375" opacity="1.00" d=" M 374.41 57.38 C 377.64 55.41 381.46 57.24 384.89 57.66 C 388.10 58.54 392.39 58.39 394.25 61.69 C 396.58 65.35 393.42 70.80 389.06 70.41 C 384.40 69.63 379.71 68.87 375.16 67.59 C 371.02 66.01 370.59 59.60 374.41 57.38 Z" />
<path fill="#2b2a28" stroke="#2b2a28" stroke-width="0.09375" opacity="1.00" d=" M 254.24 63.24 C 258.48 61.77 262.87 66.38 261.42 70.54 C 260.25 74.66 255.37 74.89 252.02 76.17 C 248.63 76.97 244.89 79.47 241.51 77.39 C 237.89 75.39 237.77 69.50 241.42 67.48 C 245.51 65.59 249.91 64.44 254.24 63.24 Z" />
<path fill="#2b2a28" stroke="#2b2a28" stroke-width="0.09375" opacity="1.00" d=" M 420.25 69.28 C 422.79 67.80 425.64 69.19 428.12 70.09 C 431.33 71.45 434.77 72.38 437.71 74.29 C 440.86 76.67 440.30 82.12 436.78 83.89 C 434.25 85.48 431.39 84.07 428.94 83.10 C 425.86 81.76 422.60 80.85 419.64 79.26 C 416.02 77.05 416.44 71.06 420.25 69.28 Z" />
<path fill="#2b2a28" stroke="#2b2a28" stroke-width="0.09375" opacity="1.00" d=" M 209.43 80.65 C 213.53 78.30 218.96 82.53 217.76 87.07 C 216.99 90.99 212.56 91.92 209.61 93.71 C 206.35 95.15 203.01 98.34 199.24 96.70 C 195.35 95.22 194.45 89.32 197.85 86.86 C 201.50 84.43 205.49 82.54 209.43 80.65 Z" />
<path fill="#2b2a28" stroke="#2b2a28" stroke-width="0.09375" opacity="1.00" d=" M 338.56 84.12 C 343.20 82.98 347.88 84.92 352.54 85.23 C 357.21 86.15 362.44 85.17 366.68 87.68 C 364.20 87.99 361.63 87.57 359.21 88.27 C 357.09 90.05 357.27 93.13 356.74 95.61 C 355.11 109.07 353.28 122.51 351.94 136.01 C 351.84 138.93 350.98 143.23 354.43 144.60 C 359.34 146.36 364.75 147.06 369.94 146.62 C 374.07 145.97 374.98 141.33 377.17 138.49 C 377.16 142.65 376.17 146.78 374.63 150.62 C 374.31 152.33 372.48 152.28 371.12 152.18 C 360.01 151.18 349.09 148.65 337.96 147.87 C 335.79 147.72 333.59 147.48 331.66 146.42 C 333.70 146.10 335.80 146.07 337.84 145.69 C 340.02 143.90 340.00 140.72 340.64 138.18 C 342.65 124.53 344.08 110.79 345.81 97.10 C 346.06 94.11 346.73 91.06 346.18 88.07 C 344.92 85.15 340.93 85.52 338.56 84.12 Z" />
<path fill="#2b2a28" stroke="#2b2a28" stroke-width="0.09375" opacity="1.00" d=" M 271.77 92.80 C 282.46 87.06 294.87 85.77 306.82 85.46 C 307.35 91.23 309.49 96.77 309.48 102.59 C 307.23 100.30 306.75 96.80 304.28 94.68 C 300.45 91.16 294.80 91.05 289.91 91.42 C 282.53 92.18 274.50 94.73 270.23 101.24 C 265.72 107.85 265.90 116.41 267.70 123.90 C 269.51 132.41 274.68 140.40 282.42 144.62 C 288.38 147.96 295.63 149.09 302.25 147.26 C 306.75 146.06 311.76 144.48 314.35 140.28 C 316.33 137.39 315.86 133.66 317.43 130.61 C 318.77 134.97 318.95 139.59 318.83 144.12 C 318.84 146.50 316.20 147.37 314.48 148.34 C 305.83 151.99 296.40 154.25 286.97 153.82 C 277.12 153.38 267.24 148.67 261.66 140.37 C 256.20 132.18 253.98 121.66 256.50 112.06 C 258.62 103.88 264.39 96.84 271.77 92.80 Z" />
<path fill="#2b2a28" stroke="#2b2a28" stroke-width="0.09375" opacity="1.00" d=" M 462.42 89.42 C 465.01 87.65 468.13 88.96 470.47 90.49 C 473.68 92.56 477.23 94.22 480.06 96.83 C 482.88 99.87 481.02 105.39 477.01 106.24 C 474.40 107.04 472.08 105.27 469.97 104.01 C 467.16 102.14 464.07 100.67 461.42 98.57 C 458.64 96.15 459.26 91.23 462.42 89.42 Z" />
<path fill="#2b2a28" stroke="#2b2a28" stroke-width="0.09375" opacity="1.00" d=" M 407.34 96.70 C 410.23 96.96 412.86 98.23 415.43 99.49 C 422.70 103.09 430.21 106.21 437.62 109.53 C 440.37 110.78 443.28 111.65 446.21 112.36 C 443.65 116.18 442.06 120.62 438.98 124.06 C 438.87 121.34 440.95 117.80 438.41 115.67 C 434.26 112.34 429.08 110.65 424.34 108.36 C 421.18 115.43 418.03 122.49 414.93 129.58 C 419.40 131.55 423.81 133.68 428.40 135.34 C 430.37 136.25 432.48 135.56 434.48 135.19 C 431.95 139.67 429.82 144.41 426.82 148.62 C 426.98 146.40 427.54 144.22 427.54 142.00 C 426.95 140.18 425.19 139.20 423.62 138.35 C 420.20 136.59 416.67 135.08 413.16 133.53 C 410.36 139.96 407.33 146.30 404.64 152.77 C 403.70 154.99 402.90 158.08 405.24 159.74 C 409.02 162.47 413.44 164.47 418.03 165.37 C 422.07 166.07 424.11 161.82 426.89 159.80 C 425.60 164.18 423.33 168.43 420.04 171.63 C 410.66 168.66 402.20 163.35 393.12 159.58 C 389.73 158.05 385.98 157.14 383.11 154.68 C 385.30 154.89 387.45 155.56 389.66 155.67 C 392.50 153.69 393.68 150.23 395.23 147.28 C 401.23 134.15 407.05 120.94 412.82 107.71 C 413.46 105.74 414.89 103.38 413.63 101.38 C 411.85 99.43 409.30 98.44 407.34 96.70 Z" />
<path fill="#2b2a28" stroke="#2b2a28" stroke-width="0.09375" opacity="1.00" d=" M 169.25 105.13 C 172.80 102.97 177.77 106.01 177.75 110.08 C 177.95 114.40 173.36 116.21 170.63 118.63 C 167.76 120.61 165.00 124.21 161.08 123.15 C 156.89 122.28 155.15 116.33 158.37 113.45 C 161.79 110.43 165.40 107.57 169.25 105.13 Z" />
<path fill="#2b2a28" stroke="#2b2a28" stroke-width="0.09375" opacity="1.00" d=" M 501.23 116.25 C 503.35 115.09 506.03 115.56 507.82 117.13 C 511.08 119.85 514.40 122.55 517.29 125.67 C 520.13 128.78 518.04 134.31 513.96 135.00 C 510.91 135.83 508.53 133.41 506.48 131.57 C 504.08 129.27 501.32 127.34 499.14 124.82 C 496.98 122.12 498.16 117.72 501.23 116.25 Z" />
<path fill="#2b2a28" stroke="#2b2a28" stroke-width="0.09375" opacity="1.00" d=" M 202.49 124.78 C 209.45 123.10 217.03 124.15 223.19 127.84 C 236.15 135.61 244.16 152.05 239.97 166.96 C 236.42 179.58 225.44 189.49 212.97 192.99 C 200.05 196.55 185.98 190.17 178.49 179.44 C 171.79 170.20 169.86 157.33 174.91 146.90 C 180.29 136.03 190.80 127.81 202.49 124.78 M 194.46 133.71 C 186.85 136.11 180.06 142.68 179.18 150.88 C 178.47 157.90 181.86 164.52 185.91 170.01 C 191.31 177.27 198.90 183.49 208.01 185.14 C 217.23 186.90 227.60 182.56 232.18 174.24 C 235.49 168.19 234.27 160.77 231.20 154.89 C 227.52 147.91 222.35 141.54 215.67 137.24 C 209.50 133.23 201.61 131.46 194.46 133.71 Z" />
<path fill="#2b2a28" stroke="#2b2a28" stroke-width="0.09375" opacity="1.00" d=" M 464.23 138.08 C 466.62 134.20 470.83 132.02 474.51 129.56 C 480.31 137.65 488.26 143.79 495.32 150.72 C 501.66 156.40 507.39 162.86 514.53 167.60 C 511.38 170.96 508.31 174.44 504.60 177.18 C 505.23 174.54 507.78 171.90 506.19 169.15 C 503.43 163.81 498.30 160.29 494.30 155.95 C 483.16 167.93 471.80 179.71 460.83 191.84 C 459.20 193.99 456.67 196.04 456.74 198.97 C 458.04 201.47 460.33 203.32 461.50 205.92 C 456.65 203.15 453.33 198.49 449.16 194.88 C 446.22 191.94 442.32 189.77 440.47 185.91 C 442.36 186.92 444.09 188.23 446.05 189.12 C 449.23 188.48 451.32 185.68 453.61 183.62 C 464.74 172.12 475.55 160.31 486.55 148.69 C 482.98 145.54 479.47 142.31 475.86 139.21 C 474.33 138.01 472.76 136.64 470.79 136.32 C 468.50 136.45 466.41 137.52 464.23 138.08 Z" />
<path fill="#2b2a28" stroke="#2b2a28" stroke-width="0.09375" opacity="1.00" d=" M 133.41 136.46 C 136.89 133.81 142.41 136.67 142.47 140.97 C 142.76 143.85 140.39 145.84 138.66 147.77 C 136.35 150.08 134.42 152.78 131.89 154.87 C 128.63 157.35 123.37 155.01 122.89 150.98 C 122.27 148.17 124.37 145.94 126.08 144.03 C 128.50 141.49 130.67 138.66 133.41 136.46 Z" />
<path fill="#2b2a28" stroke="#2b2a28" stroke-width="0.09375" opacity="1.00" d=" M 535.16 149.23 C 537.83 148.20 540.65 149.66 542.22 151.84 C 544.86 155.19 547.92 158.32 549.91 162.12 C 551.93 167.04 545.57 172.05 541.26 168.96 C 537.92 165.85 535.40 161.94 532.49 158.44 C 529.85 155.48 531.40 150.33 535.16 149.23 Z" />
<path fill="#2b2a28" stroke="#2b2a28" stroke-width="0.09375" opacity="1.00" d=" M 104.59 172.76 C 108.97 170.21 114.79 175.22 112.75 179.91 C 110.62 183.95 107.98 187.73 105.49 191.56 C 102.96 195.23 96.65 194.08 95.40 189.86 C 94.13 186.39 96.92 183.42 98.52 180.62 C 100.44 177.96 101.73 174.58 104.59 172.76 Z" />
<path fill="#2b2a28" stroke="#2b2a28" stroke-width="0.09375" opacity="1.00" d=" M 326.67 179.06 C 326.64 191.65 324.19 204.12 324.08 216.70 C 323.86 217.32 323.64 217.94 323.41 218.56 C 322.98 228.37 321.81 238.14 321.00 247.93 C 328.66 246.99 336.30 245.87 343.90 244.54 C 335.90 237.74 329.69 229.15 324.64 220.00 C 325.02 219.56 325.40 219.12 325.79 218.69 C 334.32 227.98 345.03 234.95 355.30 242.15 C 370.74 238.55 385.50 232.64 399.89 226.10 C 406.60 212.51 413.57 199.05 420.84 185.75 C 406.76 220.11 392.45 254.50 382.16 290.22 C 379.29 300.64 376.69 311.22 375.92 322.03 C 375.57 328.19 375.82 334.72 378.82 340.26 C 382.07 346.46 388.68 349.96 391.98 356.13 C 395.78 363.20 397.44 371.95 394.50 379.63 C 392.06 385.66 387.05 390.12 382.05 394.05 C 372.98 400.89 363.16 406.64 353.94 413.28 C 354.31 414.55 354.67 415.82 355.04 417.10 C 367.78 408.13 382.20 401.43 393.39 390.36 C 398.05 385.94 401.93 380.61 403.94 374.46 C 404.44 382.14 405.21 389.98 403.43 397.57 C 402.81 399.94 401.96 402.39 400.14 404.12 C 385.88 416.27 366.73 420.42 352.29 432.29 C 340.45 441.60 332.42 454.52 322.89 465.96 C 314.35 476.39 302.07 482.64 289.95 487.94 C 275.22 494.07 259.70 498.53 243.82 500.30 C 238.58 500.83 233.17 501.12 228.09 499.49 C 240.57 497.65 252.85 494.67 264.93 491.03 C 264.22 489.92 263.52 488.81 262.82 487.71 C 252.91 490.22 241.78 492.34 232.11 487.86 C 227.22 485.51 222.39 478.62 226.70 473.68 C 232.59 466.20 240.69 460.93 248.01 454.98 C 253.27 450.62 259.18 446.73 263.05 440.99 C 268.36 431.68 271.01 421.19 274.16 411.02 C 280.42 389.39 287.50 367.97 296.13 347.17 C 302.76 332.19 305.33 315.88 308.43 299.92 C 315.48 259.79 320.76 219.37 326.67 179.06 M 364.66 248.16 C 371.14 252.12 377.75 255.91 384.70 259.02 C 389.31 248.33 394.14 237.74 399.33 227.32 C 389.95 237.29 377.63 244.08 364.66 248.16 M 320.89 249.05 C 320.20 256.30 319.41 263.54 318.58 270.78 C 326.44 277.65 334.76 283.98 343.29 290.00 C 354.94 287.22 366.17 282.96 377.09 278.08 C 379.29 272.19 381.61 266.34 384.06 260.55 C 373.05 259.93 362.25 256.62 352.80 250.95 C 342.19 252.59 331.16 252.40 320.89 249.05 M 318.19 273.56 C 317.34 280.67 316.25 287.75 315.06 294.82 C 320.94 294.07 326.82 293.21 332.67 292.21 C 326.89 286.81 321.97 280.52 318.19 273.56 M 351.26 295.41 C 356.89 298.92 362.55 302.43 368.73 304.90 C 370.63 297.34 372.87 289.87 375.49 282.53 C 368.50 288.59 360.05 292.67 351.26 295.41 M 314.81 296.14 C 311.31 316.17 306.07 335.84 300.01 355.23 C 323.59 357.51 347.00 348.74 366.46 335.94 C 364.89 325.95 366.30 315.82 368.50 306.04 C 358.35 306.49 348.33 303.36 339.88 297.82 C 331.52 298.84 322.93 298.56 314.81 296.14 M 354.80 369.65 C 350.02 381.34 350.02 394.40 352.39 406.65 C 361.56 399.13 371.38 392.18 379.04 383.04 C 384.10 377.16 386.62 367.92 382.16 361.02 C 378.43 355.66 373.14 351.53 369.88 345.79 C 363.98 353.13 358.25 360.80 354.80 369.65 M 321.09 364.93 C 313.11 366.46 304.67 367.84 296.73 365.35 C 295.55 369.49 293.23 373.52 293.85 377.97 C 295.06 400.35 302.10 423.54 318.42 439.60 C 326.38 430.63 334.37 421.60 343.60 413.89 C 342.29 405.98 341.72 397.92 342.48 389.93 C 343.63 375.15 349.97 360.77 360.68 350.44 C 348.27 357.14 334.86 361.95 321.09 364.93 M 273.53 435.57 C 271.37 440.64 267.79 444.83 264.20 448.92 C 263.61 453.97 263.87 459.08 264.15 464.14 C 268.08 467.50 272.32 470.50 276.89 472.95 C 282.67 470.11 288.73 467.70 293.98 463.89 C 300.66 459.09 306.33 453.06 311.86 447.01 C 296.08 431.46 288.32 408.82 289.31 386.87 C 283.23 402.83 280.60 419.96 273.53 435.57 M 323.89 444.40 C 324.86 445.10 325.83 445.81 326.81 446.52 C 332.81 438.72 338.56 430.61 345.99 424.07 C 345.63 422.78 345.28 421.50 344.94 420.22 C 336.70 427.10 329.40 435.16 323.89 444.40 M 287.63 477.16 C 290.28 477.79 292.95 478.38 295.64 478.88 C 300.16 476.50 304.65 473.89 308.26 470.21 C 313.14 465.25 317.06 459.48 321.24 453.95 C 320.21 453.33 319.18 452.71 318.15 452.09 C 309.58 462.19 299.06 470.52 287.63 477.16 M 248.43 463.70 C 243.60 468.91 237.39 473.26 234.43 479.91 C 242.15 484.26 251.35 483.00 259.36 480.24 C 258.41 477.32 257.53 474.37 256.75 471.40 C 253.82 469.00 251.05 466.42 248.43 463.70 M 273.29 484.08 C 274.36 485.12 275.43 486.15 276.51 487.20 C 278.31 486.46 280.12 485.72 281.92 485.00 C 279.86 484.38 277.80 483.73 275.76 483.06 C 274.94 483.39 274.11 483.73 273.29 484.08 Z" />
<path fill="#2b2a28" stroke="#2b2a28" stroke-width="0.09375" opacity="1.00" d=" M 134.48 192.42 C 136.87 188.85 138.44 184.64 141.77 181.77 C 141.21 183.90 140.29 185.92 139.83 188.07 C 140.32 190.32 142.58 191.45 144.27 192.73 C 155.25 199.78 166.31 206.69 177.35 213.63 C 181.18 215.80 184.75 218.72 189.09 219.77 C 192.37 218.90 193.41 214.96 196.31 213.36 C 194.27 218.88 190.15 223.26 187.29 228.34 C 185.18 231.53 183.85 235.41 180.64 237.72 C 181.13 235.48 182.65 233.43 182.63 231.10 C 180.89 228.27 177.77 226.72 175.15 224.83 C 163.16 217.11 151.08 209.52 138.98 201.99 C 136.91 200.96 134.56 198.92 132.15 200.02 C 130.47 201.38 129.16 203.15 127.33 204.34 C 128.91 199.93 132.12 196.41 134.48 192.42 Z" />
<path fill="#2b2a28" stroke="#2b2a28" stroke-width="0.09375" opacity="1.00" d=" M 561.17 188.14 C 563.98 186.57 567.72 187.90 569.12 190.74 C 571.32 194.75 573.99 198.62 575.32 203.03 C 576.26 208.36 568.68 211.89 565.26 207.69 C 562.79 204.09 560.96 200.07 558.82 196.27 C 557.07 193.52 558.25 189.55 561.17 188.14 Z" />
<path fill="#2b2a28" stroke="#2b2a28" stroke-width="0.09375" opacity="1.00" d=" M 528.29 189.39 C 531.34 192.08 532.68 196.04 534.73 199.44 C 537.04 203.88 540.45 207.75 542.05 212.56 C 540.18 211.20 538.79 209.30 536.98 207.89 C 534.72 207.44 532.70 208.94 530.76 209.86 C 519.78 216.14 508.90 222.59 497.98 228.97 C 494.05 231.63 489.19 233.40 486.27 237.25 C 485.73 240.37 488.28 243.13 488.86 246.17 C 485.42 243.36 483.99 238.98 481.74 235.30 C 479.31 230.60 475.81 226.48 473.93 221.51 C 475.94 222.67 477.25 224.65 479.01 226.12 C 482.42 225.88 485.32 223.81 488.29 222.31 C 500.59 215.30 512.79 208.09 524.99 200.90 C 526.93 199.56 529.53 198.43 530.13 195.92 C 529.71 193.69 528.77 191.60 528.29 189.39 Z" />
<path fill="#2b2a28" stroke="#2b2a28" stroke-width="0.09375" opacity="1.00" d=" M 83.44 213.48 C 87.21 212.49 91.22 216.09 90.52 219.95 C 89.53 223.56 87.75 226.89 86.46 230.40 C 85.63 232.68 84.35 235.24 81.72 235.77 C 77.80 236.99 73.44 233.03 74.53 229.00 C 75.62 225.19 77.32 221.59 78.85 217.95 C 79.66 215.90 81.13 213.88 83.44 213.48 Z" />
<path fill="#2b2a28" stroke="#2b2a28" stroke-width="0.09375" opacity="1.00" d=" M 581.41 230.53 C 584.39 229.27 588.12 230.98 589.08 234.08 C 590.57 238.01 591.98 241.99 593.01 246.07 C 593.93 249.66 590.57 253.35 586.94 253.01 C 584.67 252.91 582.58 251.36 581.87 249.21 C 580.51 245.47 579.28 241.68 578.07 237.89 C 576.91 235.04 578.57 231.58 581.41 230.53 Z" />
<path fill="#2b2a28" stroke="#2b2a28" stroke-width="0.09375" opacity="1.00" d=" M 118.64 241.73 C 134.58 232.77 157.31 240.89 164.15 257.80 C 167.72 266.73 167.10 276.77 164.63 285.90 C 163.03 291.97 160.73 297.87 159.62 304.07 C 158.96 307.21 158.77 310.54 156.94 313.29 C 156.81 311.21 157.01 309.13 156.85 307.05 C 155.19 304.79 152.11 304.40 149.62 303.55 C 136.15 300.18 122.54 297.36 109.01 294.26 C 106.05 293.70 103.05 292.72 100.01 293.13 C 97.07 294.58 97.40 298.61 95.15 300.76 C 95.36 296.01 97.06 291.54 98.04 286.94 C 100.19 277.27 101.59 267.36 105.22 258.10 C 107.83 251.44 112.25 245.21 118.64 241.73 M 125.43 250.61 C 111.92 254.10 103.81 268.61 103.98 281.88 C 118.47 285.88 133.29 288.72 147.97 291.99 C 151.21 292.38 155.58 294.25 157.84 290.87 C 161.17 286.32 161.95 280.47 162.44 275.00 C 163.05 267.10 159.44 258.61 152.24 254.81 C 144.15 250.52 134.46 248.34 125.43 250.61 Z" />
<path fill="#2b2a28" stroke="#2b2a28" stroke-width="0.09375" opacity="1.00" d=" M 490.24 243.37 C 491.99 244.95 492.40 247.37 493.67 249.27 C 495.09 251.14 497.51 251.78 499.70 252.25 C 519.95 255.63 540.35 258.19 560.54 261.86 C 563.18 262.15 560.72 264.73 559.56 265.43 C 544.44 276.38 529.08 286.99 514.00 297.98 C 511.41 300.01 508.57 302.10 507.25 305.22 C 506.65 307.65 507.34 310.18 507.22 312.65 C 505.50 310.70 505.14 308.06 504.56 305.63 C 503.41 300.32 501.99 295.06 501.30 289.66 C 501.97 290.24 503.30 291.39 503.96 291.96 C 509.63 288.18 515.22 284.27 520.83 280.41 C 519.39 273.86 517.79 267.36 516.24 260.84 C 510.19 260.19 504.17 258.49 498.07 258.87 C 494.47 259.36 496.65 263.85 496.13 266.16 C 494.24 263.81 494.11 260.73 493.47 257.91 C 492.58 253.02 490.59 248.36 490.24 243.37 M 520.81 261.48 C 522.05 266.93 523.33 272.37 524.68 277.79 C 531.34 273.40 538.05 269.06 544.64 264.56 C 536.71 263.44 528.76 262.48 520.81 261.48 Z" />
<path fill="#2b2a28" stroke="#2b2a28" stroke-width="0.09375" opacity="1.00" d=" M 67.32 258.42 C 71.02 256.51 76.04 259.76 75.58 263.96 C 74.85 268.30 73.87 272.61 72.83 276.89 C 71.90 281.25 65.63 282.55 62.88 279.14 C 60.09 275.99 62.18 271.69 62.71 268.10 C 63.69 264.72 63.60 260.08 67.32 258.42 Z" />
<path fill="#2b2a28" stroke="#2b2a28" stroke-width="0.09375" opacity="1.00" d=" M 592.40 276.43 C 595.25 274.55 599.62 275.86 600.81 279.10 C 601.83 282.24 602.04 285.58 602.58 288.84 C 602.93 291.63 603.71 295.10 601.30 297.25 C 598.41 300.38 592.47 298.88 591.60 294.65 C 590.80 290.43 590.24 286.17 589.68 281.91 C 589.37 279.75 590.55 277.53 592.40 276.43 Z" />
<path fill="#2b2a28" stroke="#2b2a28" stroke-width="0.09375" opacity="1.00" d=" M 61.44 304.51 C 64.87 303.55 68.79 306.40 68.65 310.03 C 68.61 314.02 68.39 318.01 68.21 321.99 C 68.29 324.92 65.89 327.56 62.99 327.80 C 59.70 328.23 56.41 325.38 56.56 322.02 C 56.49 317.98 56.68 313.94 57.02 309.92 C 57.07 307.38 58.98 305.08 61.44 304.51 Z" />
<path fill="#2b2a28" stroke="#2b2a28" stroke-width="0.09375" opacity="1.00" d=" M 596.24 323.23 C 599.74 320.89 605.09 323.63 605.07 327.88 C 605.19 332.29 605.13 336.73 604.66 341.12 C 604.15 345.28 598.55 347.37 595.39 344.67 C 591.97 342.18 593.39 337.54 593.26 333.98 C 593.56 330.34 592.43 325.42 596.24 323.23 Z" />
<path fill="#2b2a28" stroke="#2b2a28" stroke-width="0.09375" opacity="1.00" d=" M 62.39 351.54 C 65.54 350.51 69.31 352.71 69.76 356.04 C 70.34 360.65 71.35 365.26 71.40 369.92 C 70.71 375.21 62.66 376.42 60.46 371.57 C 59.01 367.20 58.83 362.51 58.27 357.98 C 57.79 355.17 59.68 352.30 62.39 351.54 Z" />
<path fill="#2b2a28" stroke="#2b2a28" stroke-width="0.09375" opacity="1.00" d=" M 592.41 369.72 C 596.03 367.82 601.00 370.83 600.75 374.97 C 600.49 378.33 599.62 381.61 598.98 384.91 C 598.41 387.33 598.01 390.27 595.60 391.59 C 592.10 393.89 586.86 391.22 586.73 387.03 C 587.00 383.35 588.10 379.79 588.72 376.16 C 589.09 373.67 589.84 370.79 592.41 369.72 Z" />
<path fill="#2b2a28" stroke="#2b2a28" stroke-width="0.09375" opacity="1.00" d=" M 71.49 397.65 C 74.39 396.58 77.98 398.23 78.87 401.24 C 80.13 404.83 81.24 408.48 82.41 412.11 C 83.34 414.42 82.79 417.22 80.84 418.84 C 78.18 421.32 73.26 420.43 71.82 417.03 C 70.16 413.12 68.98 409.01 67.84 404.93 C 66.80 402.01 68.58 398.60 71.49 397.65 Z" />
<path fill="#2b2a28" stroke="#2b2a28" stroke-width="0.09375" opacity="1.00" d=" M 579.37 415.35 C 583.22 412.63 589.19 416.34 588.28 421.02 C 587.03 425.56 585.17 429.95 583.15 434.20 C 581.29 437.90 575.48 438.05 573.31 434.58 C 570.82 431.13 573.65 427.24 574.79 423.87 C 576.18 421.00 576.58 417.29 579.37 415.35 Z" />
<path fill="#2b2a28" stroke="#2b2a28" stroke-width="0.09375" opacity="1.00" d=" M 88.42 441.48 C 90.86 440.39 94.01 441.24 95.43 443.53 C 97.25 446.46 98.66 449.62 100.37 452.62 C 101.56 454.70 102.78 457.25 101.58 459.63 C 100.09 463.46 94.33 464.41 91.81 461.11 C 89.31 457.45 87.39 453.41 85.45 449.44 C 83.89 446.55 85.40 442.66 88.42 441.48 Z" />
<path fill="#2b2a28" stroke="#2b2a28" stroke-width="0.09375" opacity="1.00" d=" M 137.66 470.80 C 148.05 464.69 157.77 457.45 168.36 451.68 C 164.86 462.35 159.91 472.49 155.84 482.95 C 166.63 480.14 177.24 476.55 188.17 474.30 C 183.64 480.91 177.98 486.66 172.96 492.90 C 170.13 496.59 166.38 499.71 164.51 504.05 C 165.09 506.57 168.40 508.51 170.86 507.40 C 181.04 502.81 190.61 496.90 200.94 492.66 C 198.69 503.25 194.79 513.42 192.22 523.92 C 191.24 526.43 193.14 528.53 194.29 530.56 C 191.08 528.25 188.13 525.61 185.14 523.03 C 188.10 520.52 188.14 516.26 189.58 512.90 C 186.78 510.55 183.96 508.24 181.14 505.92 C 178.20 507.42 175.25 508.95 172.66 511.02 C 173.26 511.88 174.45 513.59 175.05 514.44 C 171.84 512.46 169.45 509.23 165.76 508.07 C 163.15 505.35 160.82 502.39 158.43 499.49 C 165.00 494.14 169.75 486.91 175.51 480.73 C 166.20 483.14 157.00 485.95 147.65 488.19 C 150.51 479.14 154.56 470.53 158.12 461.75 C 151.70 466.16 145.01 470.18 138.84 474.94 C 139.64 476.51 140.46 478.06 141.20 479.67 C 137.86 476.61 135.09 473.00 132.04 469.66 C 133.76 470.42 135.79 472.28 137.66 470.80 M 183.37 504.69 C 185.67 506.62 187.99 508.54 190.32 510.45 C 191.63 506.57 192.92 502.69 194.19 498.80 C 190.58 500.75 186.97 502.71 183.37 504.69 Z" />
<path fill="#2b2a28" stroke="#2b2a28" stroke-width="0.09375" opacity="1.00" d=" M 500.66 452.19 C 511.60 454.05 522.13 457.89 533.03 459.93 C 535.27 460.46 536.90 458.54 538.73 457.65 C 536.57 460.84 534.05 463.76 531.75 466.84 C 528.86 464.26 524.80 464.05 521.29 462.85 C 519.05 465.74 516.80 468.62 514.59 471.53 C 516.21 474.35 517.82 477.20 519.84 479.76 C 521.02 478.97 522.21 478.20 523.42 477.44 C 520.51 481.08 518.07 485.18 514.44 488.19 C 511.10 491.07 508.38 494.59 505.02 497.45 C 505.52 496.52 506.50 494.67 507.00 493.74 C 502.75 488.40 497.45 484.05 492.69 479.20 C 490.55 477.26 488.72 474.84 486.09 473.56 C 484.81 474.09 483.54 474.64 482.29 475.23 C 485.69 471.67 489.04 468.05 492.64 464.68 C 492.01 465.97 491.34 467.23 490.69 468.52 C 496.55 475.24 503.25 481.21 509.75 487.31 C 511.79 489.91 514.18 487.21 515.90 485.70 C 517.33 484.55 516.95 482.58 516.19 481.19 C 511.23 471.41 505.25 462.15 500.66 452.19 M 507.06 458.71 C 509.12 462.25 511.20 465.79 513.29 469.32 C 515.14 466.95 516.99 464.56 518.82 462.17 C 514.90 461.00 510.98 459.84 507.06 458.71 Z" />
<path fill="#2b2a28" stroke="#2b2a28" stroke-width="0.09375" opacity="1.00" d=" M 560.19 457.25 C 564.29 455.45 569.19 459.63 568.01 463.97 C 566.86 467.21 564.69 469.97 562.98 472.94 C 561.60 474.96 560.43 477.55 557.89 478.33 C 554.69 479.46 550.91 477.22 550.34 473.89 C 549.68 470.45 552.50 467.82 554.00 465.04 C 555.93 462.38 556.98 458.66 560.19 457.25 Z" />
<path fill="#2b2a28" stroke="#2b2a28" stroke-width="0.09375" opacity="1.00" d=" M 481.81 475.52 C 483.36 477.42 484.91 479.32 486.41 481.27 C 485.21 480.69 484.03 480.11 482.85 479.52 C 479.75 480.89 477.18 483.12 474.61 485.27 C 480.82 492.17 486.15 499.95 493.06 506.16 C 494.70 505.60 496.18 504.69 497.77 504.00 C 493.95 507.74 489.70 511.01 485.62 514.45 C 486.33 513.22 487.06 512.00 487.82 510.81 C 482.58 503.06 475.96 496.37 470.11 489.10 C 466.98 492.24 461.47 494.74 462.84 500.12 C 461.69 498.10 460.55 496.10 459.43 494.08 C 467.45 488.64 474.66 482.04 481.81 475.52 Z" />
<path fill="#2b2a28" stroke="#2b2a28" stroke-width="0.09375" opacity="1.00" d=" M 114.21 481.10 C 117.21 480.35 119.70 482.57 121.24 484.88 C 123.46 488.01 126.22 490.77 128.09 494.15 C 129.71 497.99 126.10 502.57 122.00 501.98 C 119.10 501.77 117.45 499.11 115.78 497.10 C 113.78 494.39 111.39 491.90 109.87 488.87 C 108.49 485.65 110.81 481.68 114.21 481.10 Z" />
<path fill="#2b2a28" stroke="#2b2a28" stroke-width="0.09375" opacity="1.00" d=" M 532.47 495.68 C 537.09 493.09 542.89 498.80 540.29 503.45 C 537.83 507.19 534.57 510.34 531.54 513.63 C 529.28 516.32 524.71 516.23 522.59 513.42 C 520.56 511.06 521.05 507.39 523.26 505.33 C 526.38 502.17 528.88 498.31 532.47 495.68 Z" />
<path fill="#2b2a28" stroke="#2b2a28" stroke-width="0.09375" opacity="1.00" d=" M 449.89 499.60 C 455.99 502.42 461.38 506.52 467.17 509.90 C 471.18 512.25 474.89 515.16 479.19 516.99 C 480.99 517.69 482.84 516.37 484.65 516.17 C 481.59 518.66 478.25 520.79 474.98 522.99 C 473.46 519.43 469.29 518.24 466.43 515.98 C 463.41 518.06 460.38 520.12 457.44 522.31 C 458.14 525.52 458.77 528.78 460.20 531.76 C 461.11 531.42 462.94 530.74 463.86 530.40 C 460.66 533.20 457.04 535.46 453.56 537.88 C 454.57 536.01 456.73 534.37 456.07 532.01 C 454.25 521.16 451.45 510.49 449.89 499.60 M 454.11 507.75 C 455.02 511.74 455.93 515.74 456.87 519.73 C 459.34 518.02 461.81 516.30 464.28 514.58 C 460.90 512.29 457.51 510.00 454.11 507.75 Z" />
<path fill="#2b2a28" stroke="#2b2a28" stroke-width="0.09375" opacity="1.00" d=" M 209.49 502.00 C 217.37 506.94 226.74 509.94 233.16 516.91 C 239.75 524.39 235.43 536.78 226.84 540.61 C 220.19 543.80 212.45 541.15 206.66 537.35 C 202.79 534.63 198.44 532.71 194.56 530.03 C 195.55 530.30 197.52 530.84 198.51 531.11 C 202.13 526.68 204.43 521.38 207.28 516.46 C 209.10 512.95 211.37 509.65 212.74 505.93 C 211.84 504.48 210.56 503.31 209.49 502.00 M 209.17 525.27 C 207.88 527.74 206.25 530.14 205.79 532.95 C 209.69 538.59 219.08 541.61 224.54 536.43 C 228.44 532.49 231.29 526.71 229.99 521.08 C 228.46 515.33 223.28 511.50 217.98 509.43 C 214.94 514.65 212.10 519.98 209.17 525.27 Z" />
<path fill="#2b2a28" stroke="#2b2a28" stroke-width="0.09375" opacity="1.00" d=" M 429.27 515.18 C 433.66 514.12 438.62 514.78 442.19 517.68 C 448.10 522.43 450.57 531.34 447.21 538.28 C 443.33 546.13 433.69 551.10 425.08 549.09 C 416.62 547.02 411.02 537.51 413.30 529.10 C 415.13 521.70 422.23 516.92 429.27 515.18 M 424.33 519.50 C 420.12 521.02 416.92 525.38 417.69 529.97 C 418.59 535.91 422.14 541.71 427.59 544.49 C 432.64 547.11 439.73 545.56 442.76 540.61 C 445.01 536.71 443.72 531.92 441.84 528.14 C 439.05 521.64 431.42 516.42 424.33 519.50 Z" />
<path fill="#2b2a28" stroke="#2b2a28" stroke-width="0.09375" opacity="1.00" d=" M 144.46 516.48 C 148.76 514.70 151.82 518.96 154.67 521.38 C 157.13 523.94 161.26 525.94 161.18 529.99 C 161.29 534.33 155.76 537.36 152.24 534.76 C 148.66 532.05 145.33 528.99 142.21 525.77 C 139.42 522.99 140.79 517.74 144.46 516.48 Z" />
<path fill="#2b2a28" stroke="#2b2a28" stroke-width="0.09375" opacity="1.00" d=" M 241.63 519.50 C 248.89 521.83 255.73 525.36 263.10 527.35 C 262.02 529.39 260.96 531.43 259.90 533.47 C 259.78 532.49 259.53 530.51 259.41 529.52 C 256.97 527.60 253.89 526.79 251.08 525.58 C 249.71 529.10 248.35 532.62 246.99 536.15 C 250.50 537.55 254.03 539.07 257.85 539.34 C 256.56 541.53 255.43 543.80 254.27 546.07 C 254.31 544.72 254.28 543.37 254.19 542.04 C 251.78 540.32 248.90 539.45 246.21 538.30 C 244.86 542.14 242.73 545.79 242.20 549.86 C 243.31 552.49 246.59 553.15 249.06 553.94 C 251.62 555.07 253.34 552.45 255.17 551.15 C 254.11 553.39 252.96 555.59 251.58 557.65 C 244.62 555.01 237.77 552.10 230.83 549.41 C 232.20 549.45 233.58 549.46 234.95 549.44 C 237.36 545.73 238.53 541.40 240.21 537.35 C 241.95 532.51 244.18 527.84 245.51 522.87 C 244.38 521.56 242.93 520.60 241.63 519.50 Z" />
<path fill="#2b2a28" stroke="#2b2a28" stroke-width="0.09375" opacity="1.00" d=" M 499.39 528.45 C 503.06 526.79 507.63 530.02 507.36 534.03 C 507.42 537.08 504.66 538.89 502.57 540.63 C 499.94 542.62 497.48 544.91 494.58 546.52 C 490.89 548.43 486.10 545.12 486.38 541.02 C 486.33 537.84 489.28 536.09 491.47 534.35 C 494.14 532.43 496.47 530.01 499.39 528.45 Z" />
<path fill="#2b2a28" stroke="#2b2a28" stroke-width="0.09375" opacity="1.00" d=" M 379.27 536.67 C 384.83 534.64 390.36 532.48 396.04 530.82 C 399.80 529.58 404.56 530.93 406.08 534.83 C 407.72 538.73 405.42 542.68 403.69 546.10 C 410.20 549.54 416.29 555.49 424.19 554.56 C 420.40 555.98 416.26 558.54 412.16 556.89 C 407.81 554.95 404.12 551.86 400.18 549.25 C 398.64 549.75 397.10 550.26 395.57 550.78 C 396.93 554.40 397.94 558.22 400.02 561.53 C 401.65 561.49 403.28 561.43 404.91 561.35 C 400.23 563.31 395.37 564.81 390.58 566.48 C 391.58 565.58 392.61 564.72 393.57 563.78 C 392.95 558.63 390.53 553.91 389.00 548.99 C 387.34 544.88 386.49 540.39 384.12 536.62 C 382.50 536.58 380.88 536.60 379.27 536.67 M 390.07 535.03 C 391.55 539.55 393.17 544.03 394.80 548.50 C 397.22 547.69 400.63 547.58 401.70 544.80 C 403.10 541.24 401.59 536.74 398.47 534.59 C 395.85 532.81 392.75 534.16 390.07 535.03 Z" />
<path fill="#2b2a28" stroke="#2b2a28" stroke-width="0.09375" opacity="1.00" d=" M 279.41 532.43 C 284.10 533.46 288.74 534.71 293.51 535.34 C 292.12 535.72 290.65 535.89 289.37 536.57 C 287.83 539.90 287.47 543.62 286.54 547.14 C 285.42 552.75 283.64 558.25 283.11 563.96 C 284.02 565.64 286.32 565.98 287.73 567.19 C 282.57 565.89 277.28 565.02 272.22 563.36 C 273.26 563.32 275.32 563.23 276.36 563.18 C 278.51 557.34 279.46 551.15 280.95 545.13 C 281.64 541.80 282.72 538.54 282.91 535.14 C 281.84 534.10 280.58 533.32 279.41 532.43 Z" />
<path fill="#2b2a28" stroke="#2b2a28" stroke-width="0.09375" opacity="1.00" d=" M 350.50 539.49 C 357.36 532.96 367.58 532.62 376.51 532.83 C 376.85 536.26 377.40 539.68 377.63 543.13 C 376.03 540.65 375.04 537.25 371.86 536.40 C 365.01 534.52 355.60 536.33 352.82 543.70 C 350.13 551.77 352.73 562.05 360.16 566.74 C 365.14 570.03 371.88 569.94 377.02 567.08 C 379.75 565.52 380.09 562.13 381.10 559.47 C 381.54 562.23 381.79 565.06 381.38 567.84 C 381.17 569.32 379.40 569.61 378.29 570.18 C 370.67 572.70 361.69 573.78 354.42 569.64 C 344.01 563.92 341.77 547.66 350.50 539.49 Z" />
<path fill="#2b2a28" stroke="#2b2a28" stroke-width="0.09375" opacity="1.00" d=" M 299.33 538.83 C 299.36 538.05 300.43 535.48 301.17 537.56 C 308.17 546.55 315.08 555.61 322.01 564.66 C 322.65 558.76 323.29 552.87 323.94 546.98 C 324.00 545.42 324.41 543.73 323.71 542.27 C 322.37 541.58 320.98 541.03 319.62 540.40 C 323.96 540.73 328.27 541.38 332.58 542.06 C 331.22 542.75 328.60 542.20 328.29 544.22 C 326.18 554.14 325.63 564.37 323.25 574.24 C 315.21 565.67 308.28 556.12 301.26 546.71 C 300.73 553.98 299.19 561.21 299.57 568.52 C 300.64 568.94 302.77 569.78 303.84 570.20 C 299.30 570.17 294.84 569.13 290.32 568.83 C 291.87 567.93 294.95 568.52 295.12 566.20 C 296.82 557.13 297.80 547.93 299.33 538.83 Z" />
<path fill="#2b2a28" stroke="#2b2a28" stroke-width="0.09375" opacity="1.00" d=" M 181.44 545.58 C 184.25 544.40 186.91 546.32 189.17 547.78 C 191.94 549.69 195.02 551.16 197.61 553.32 C 200.76 556.20 199.09 562.05 194.97 563.01 C 192.15 563.89 189.65 561.93 187.36 560.60 C 184.57 558.75 181.53 557.21 179.05 554.96 C 176.22 552.12 177.67 546.77 181.44 545.58 Z" />
<path fill="#2b2a28" stroke="#2b2a28" stroke-width="0.09375" opacity="1.00" d=" M 460.32 555.25 C 463.45 553.51 467.71 555.62 468.47 559.06 C 469.28 561.86 467.57 564.75 465.05 565.97 C 461.10 568.05 457.32 570.68 453.00 571.91 C 447.88 572.72 444.34 565.69 448.12 562.10 C 451.88 559.34 456.24 557.48 460.32 555.25 Z" />
<path fill="#2b2a28" stroke="#2b2a28" stroke-width="0.09375" opacity="1.00" d=" M 222.19 568.12 C 224.73 566.69 227.47 568.17 229.88 569.13 C 232.90 570.49 236.12 571.41 239.03 573.02 C 242.56 575.14 242.27 580.94 238.66 582.85 C 235.94 584.62 232.83 582.99 230.17 581.99 C 227.11 580.67 223.86 579.70 221.06 577.88 C 217.75 575.46 218.47 569.75 222.19 568.12 Z" />
<path fill="#2b2a28" stroke="#2b2a28" stroke-width="0.09375" opacity="1.00" d=" M 417.44 574.63 C 420.54 573.16 424.61 574.79 425.59 578.14 C 426.72 581.21 424.72 584.73 421.63 585.59 C 417.49 587.05 413.36 588.65 409.04 589.46 C 403.61 590.02 400.75 582.15 405.17 579.04 C 409.00 576.96 413.38 576.17 417.44 574.63 Z" />
<path fill="#2b2a28" stroke="#2b2a28" stroke-width="0.09375" opacity="1.00" d=" M 267.42 582.55 C 270.58 581.69 273.75 583.25 276.88 583.68 C 280.12 584.54 284.52 584.36 286.17 587.90 C 288.39 591.87 284.51 597.27 280.02 596.26 C 275.54 595.46 270.98 594.75 266.67 593.24 C 262.19 591.24 262.74 583.95 267.42 582.55 Z" />
<path fill="#2b2a28" stroke="#2b2a28" stroke-width="0.09375" opacity="1.00" d=" M 371.15 586.14 C 373.86 585.58 377.23 585.38 379.07 587.90 C 381.89 591.08 379.84 596.76 375.60 597.32 C 371.08 598.10 366.51 599.00 361.91 599.01 C 356.92 598.49 355.22 591.21 359.41 588.49 C 362.98 586.59 367.27 587.01 371.15 586.14 Z" />
<path fill="#2b2a28" stroke="#2b2a28" stroke-width="0.09375" opacity="1.00" d=" M 313.36 589.43 C 316.45 588.33 319.81 589.20 323.02 589.11 C 326.20 589.34 330.30 588.57 332.40 591.65 C 335.20 595.10 332.49 600.97 328.01 600.92 C 323.27 600.91 318.43 601.12 313.77 600.18 C 309.08 598.65 308.82 591.32 313.36 589.43 Z" />
</g>
</svg>
