<?xml version="1.0" encoding="UTF-8"?>
<svg width="27px" height="26px" viewBox="0 0 27 26" version="1.1" xmlns="http://www.w3.org/2000/svg" xmlns:xlink="http://www.w3.org/1999/xlink">
    <!-- Generator: Sketch 54.1 (76490) - https://sketchapp.com -->
    <title>Combined Shape</title>
    <desc>Created with Sketch.</desc>
    <g id="Page-1" stroke="none" stroke-width="1" fill="none" fill-rule="evenodd">
        <g id="Group-6" transform="translate(-65.000000, -123.000000)" fill="#D3AC47">
            <g id="Group-5" transform="translate(0.000000, 123.200002)">
                <path d="M78.4000012,25.6000004 C71.3307563,25.6000004 65.600001,19.8692451 65.600001,12.8000002 C65.600001,5.73075529 71.3307563,0 78.4000012,0 C85.4692461,0 91.2000014,5.73075529 91.2000014,12.8000002 C91.2000014,19.8692451 85.4692461,25.6000004 78.4000012,25.6000004 Z M82.2400006,5.12000008 L79.9709098,5.12000008 C78.9265898,5.12 78.0352066,5.48922306 77.2967607,6.22766895 C76.5583148,6.96611446 76.1890919,7.85749745 76.1890919,8.90181814 L76.1890919,11.170909 L73.9200011,11.170909 L73.9200011,14.1963634 L76.1890919,14.1963634 L76.1890919,20.2472723 L79.2145462,20.2472723 L79.2145462,14.1963634 L81.483637,14.1963634 L82.2400006,11.170909 L79.2145462,11.170909 L79.2145462,8.90181814 C79.2145462,8.6929543 79.2883911,8.51467781 79.4360801,8.36698844 C79.5837692,8.21929906 79.762046,8.14545453 79.9709098,8.14545453 L82.2400006,8.14545453 L82.2400006,5.12000008 Z" id="Combined-Shape"></path>
            </g>
        </g>
    </g>
</svg>