<?xml version="1.0" encoding="UTF-8"?>
<svg width="26px" height="26px" viewBox="0 0 26 26" version="1.1" xmlns="http://www.w3.org/2000/svg" xmlns:xlink="http://www.w3.org/1999/xlink">
    <!-- Generator: Sketch 54.1 (76490) - https://sketchapp.com -->
    <title>Combined Shape</title>
    <desc>Created with Sketch.</desc>
    <g id="Page-1" stroke="none" stroke-width="1" fill="none" fill-rule="evenodd">
        <g id="Group-6" transform="translate(0.000000, -123.000000)" fill="#D3AC47">
            <g id="Group-5" transform="translate(0.000000, 123.200002)">
                <path d="M12.8000002,25.6000004 C5.73075529,25.6000004 0,19.8692451 0,12.8000002 C0,5.73075529 5.73075529,0 12.8000002,0 C19.8692451,0 25.6000004,5.73075529 25.6000004,12.8000002 C25.6000004,19.8692451 19.8692451,25.6000004 12.8000002,25.6000004 Z M9.59999998,6.4000001 C8.71634401,6.4000001 7.96209687,6.71241954 7.33725824,7.33725824 C6.71241935,7.96209687 6.40000003,8.71634401 6.4000001,9.59999998 L6.4000001,15.9999998 C6.40000003,16.883656 6.71241935,17.6379024 7.33725824,18.2627414 C7.96209687,18.8875805 8.71634401,19.1999996 9.59999998,19.1999996 L15.9999998,19.1999996 C16.883656,19.1999996 17.6379024,18.8875805 18.2627414,18.2627414 C18.8875805,17.6379024 19.1999996,16.883656 19.1999996,15.9999998 L19.1999996,9.59999998 C19.1999996,8.71634401 18.8875805,7.96209687 18.2627414,7.33725824 C17.6379024,6.71241954 16.883656,6.4000001 15.9999998,6.4000001 L9.59999998,6.4000001 Z M16.1523812,10.057143 C15.8157505,10.057143 15.5428574,9.78424989 15.5428574,9.44761918 C15.5428574,9.11098847 15.8157505,8.83809536 16.1523812,8.83809536 C16.4890119,8.83809536 16.761905,9.11098847 16.761905,9.44761918 C16.761905,9.78424989 16.4890119,10.057143 16.1523812,10.057143 Z M12.8000002,15.5428574 C11.285162,15.5428574 10.057143,14.3148384 10.057143,12.8000002 C10.057143,11.285162 11.285162,10.057143 12.8000002,10.057143 C14.3148384,10.057143 15.5428574,11.285162 15.5428574,12.8000002 C15.5428574,14.3148384 14.3148384,15.5428574 12.8000002,15.5428574 Z" id="Combined-Shape"></path>
            </g>
        </g>
    </g>
</svg>