<?xml version="1.0" encoding="UTF-8"?>
<svg width="26px" height="27px" viewBox="0 0 26 27" version="1.1" xmlns="http://www.w3.org/2000/svg" xmlns:xlink="http://www.w3.org/1999/xlink">
    <!-- Generator: Sketch 54.1 (76490) - https://sketchapp.com -->
    <title>Combined Shape</title>
    <desc>Created with Sketch.</desc>
    <g id="Page-1" stroke="none" stroke-width="1" fill="none" fill-rule="evenodd">
        <g id="Group-6" transform="translate(0.000000, -41.000000)" fill="#D3AC47">
            <g id="Group-4" transform="translate(0.000000, 41.600001)">
                <path d="M12.8000002,25.6000004 C5.73075529,25.6000004 0,19.8692451 0,12.8000002 C0,5.73075529 5.73075529,0 12.8000002,0 C19.8692451,0 25.6000004,5.73075529 25.6000004,12.8000002 C25.6000004,19.8692451 19.8692451,25.6000004 12.8000002,25.6000004 Z M19.1999996,11.1979005 C19.1994214,9.51936466 18.6055756,8.08674728 17.4184665,6.90004847 C16.231358,5.71334938 14.7985355,5.12 13.1199992,5.12000008 C11.441463,5.12000008 10.0086411,5.71334958 8.82153225,6.9000486 C7.63442331,8.08674762 7.04057946,9.51936493 7.0400001,11.1979005 C7.0400001,15.9267892 13.1199999,19.9801224 13.1199999,19.9801224 C13.1199999,19.9801224 19.1999996,15.9267892 19.1999996,11.1979005 Z M15.1466665,11.1979005 C15.1466665,12.5490116 14.4711109,13.2245671 13.1199999,13.2245671 C11.7688888,13.2245671 11.0933333,12.5490116 11.0933333,11.1979005 C11.0933333,9.84678946 11.7688888,9.17123393 13.1199999,9.17123393 C14.4711109,9.17123393 15.1466665,9.84678946 15.1466665,11.1979005 Z" id="Combined-Shape"></path>
            </g>
        </g>
    </g>
</svg>