<?xml version="1.0" encoding="UTF-8"?>
<svg width="26px" height="27px" viewBox="0 0 26 27" version="1.1" xmlns="http://www.w3.org/2000/svg" xmlns:xlink="http://www.w3.org/1999/xlink">
    <!-- Generator: Sketch 54.1 (76490) - https://sketchapp.com -->
    <title>Combined Shape</title>
    <desc>Created with Sketch.</desc>
    <g id="Page-1" stroke="none" stroke-width="1" fill="none" fill-rule="evenodd">
        <g id="Group-6" transform="translate(-156.000000, 0.000000)" fill="#D3AC47">
            <g id="Group-2" transform="translate(156.000002, 0.800000)">
                <path d="M12.8000002,25.6000004 C5.73075529,25.6000004 0,19.8692451 0,12.8000002 C0,5.73075529 5.73075529,0 12.8000002,0 C19.8692451,0 25.6000004,5.73075529 25.6000004,12.8000002 C25.6000004,19.8692451 19.8692451,25.6000004 12.8000002,25.6000004 Z M7.74400003,7.68000011 C7.00480014,7.68000011 6.4000001,8.28480015 6.4000001,9.02400005 L6.4000001,17.0879997 C6.4000001,17.8271997 7.00480014,18.4319996 7.74400003,18.4319996 L18.4959995,18.4319996 C19.2351995,18.4319996 19.8399995,17.8271997 19.8399995,17.0879997 L19.8399995,9.02400005 C19.8399995,8.28480015 19.2351995,7.68000011 18.4959995,7.68000011 L7.74400003,7.68000011 Z M19.8399995,9.02400005 L13.1199998,13.7279998 L6.4000001,9.02400005 L19.8399995,9.02400005 Z" id="Combined-Shape"></path>
            </g>
        </g>
    </g>
</svg>