<?xml version="1.0" encoding="UTF-8"?>
<svg width="26px" height="26px" viewBox="0 0 26 26" version="1.1" xmlns="http://www.w3.org/2000/svg" xmlns:xlink="http://www.w3.org/1999/xlink">
    <!-- Generator: Sketch 54.1 (76490) - https://sketchapp.com -->
    <title>Combined Shape</title>
    <desc>Created with Sketch.</desc>
    <g id="Page-1" stroke="none" stroke-width="1" fill="none" fill-rule="evenodd">
        <g id="Group-6" fill="#D3AC47">
            <g id="Group-3">
                <path d="M12.8000002,25.6000004 C5.73075529,25.6000004 0,19.8692451 0,12.8000002 C0,5.73075529 5.73075529,0 12.8000002,0 C19.8692451,0 25.6000004,5.73075529 25.6000004,12.8000002 C25.6000004,19.8692451 19.8692451,25.6000004 12.8000002,25.6000004 Z M19.1992705,16.4815924 C19.2191787,15.6792573 18.8317756,15.2220323 18.0370647,15.1099165 C17.3862634,15.0240824 16.7533554,14.8664184 16.1383414,14.6369243 C15.5981771,14.4338772 15.1229329,14.5352329 14.7126093,14.9409909 L13.8544678,15.799133 C12.1314135,14.8193778 10.780009,13.4679733 9.80025376,11.7449195 L10.6583959,10.8867774 C11.0641533,10.4764533 11.1655089,10.0012096 10.9624618,9.46104562 C10.7329684,8.84603131 10.5753044,8.21312365 10.4894703,7.56232279 C10.3788578,6.77973898 9.92838941,6.39233631 9.13806549,6.40011493 L7.1109591,6.40011486 C6.71402295,6.40048839 6.38174975,6.54725571 6.1141395,6.84041663 C5.84652945,7.13357749 5.73058658,7.47782055 5.76631116,7.87314602 C5.99122716,9.99112924 6.68269577,11.9439077 7.84071685,13.7314833 C8.89087794,15.3841318 10.2422824,16.7355375 11.8949303,17.7856991 C13.6742124,18.9395566 15.6179822,19.6310244 17.726241,19.8601036 C18.1229086,19.895953 18.467985,19.7792511 18.7614688,19.5099987 C19.0549547,19.2407462 19.2008895,18.906981 19.1992718,18.5086991 L19.1992718,16.4815924 Z" id="Combined-Shape"></path>
            </g>
        </g>
    </g>
</svg>