<?xml version="1.0" encoding="UTF-8"?>
<svg width="26px" height="26px" viewBox="0 0 26 26" version="1.1" xmlns="http://www.w3.org/2000/svg" xmlns:xlink="http://www.w3.org/1999/xlink">
    <!-- Generator: Sketch 54.1 (76490) - https://sketchapp.com -->
    <title>Combined Shape</title>
    <desc>Created with Sketch.</desc>
    <g id="Page-1" stroke="none" stroke-width="1" fill="none" fill-rule="evenodd">
        <g id="Group-6" transform="translate(-131.000000, -123.000000)" fill="#D3AC47">
            <g id="Group-5" transform="translate(0.000000, 123.200002)">
                <path d="M144.000002,25.6000004 C136.930757,25.6000004 131.200002,19.8692451 131.200002,12.8000002 C131.200002,5.73075529 136.930757,0 144.000002,0 C151.069247,0 156.800002,5.73075529 156.800002,12.8000002 C156.800002,19.8692451 151.069247,25.6000004 144.000002,25.6000004 Z M151.040002,7.08502991 C150.451157,7.50038563 149.811738,7.81194907 149.121748,8.01972058 C148.285258,7.05790836 147.271572,6.80426955 146.080692,7.25880446 C144.889812,7.71333943 144.302915,8.57788759 144.320003,9.85244889 L144.320002,10.4633568 C141.992588,10.5237063 140.159861,9.60123374 138.821821,7.69593958 C138.821821,7.69593896 136.378184,13.1941204 141.876366,15.6377566 C140.584998,16.5143348 139.159544,16.9216077 137.600002,16.8595747 C143.098184,19.91412 149.818184,16.8595747 149.818184,9.83412064 C149.81762,9.66358654 149.801329,9.49456841 149.769311,9.32706619 C150.405137,8.70002181 150.8287,7.95267667 151.040002,7.08503004 Z" id="Combined-Shape"></path>
            </g>
        </g>
    </g>
</svg>